<svg width="44" height="44" viewBox="0 0 24 24" fill="#FF5640" xmlns="http://www.w3.org/2000/svg">
    <circle cx="12" cy="12" r="12" fill="red" />
    <path d="M4.99982 21C4.72361 21 4.47367 21.112 4.29271 21.293L3.89655 21.6932C3.78702 21.8027 3.64344 21.8572 3.49987 21.8569C3.35629 21.8572 3.21272 21.8027 3.10318 21.6932L2.70703 21.293C2.52606 21.112 2.27613 21 1.99991 21C1.44766 21 1 21.4477 1 21.9999C1 22.5522 1.44766 22.9998 1.99991 22.9998C2.27613 22.9998 2.52606 22.888 2.70703 22.707L3.10318 22.3068C3.21272 22.1973 3.35629 22.1428 3.49987 22.1431C3.64344 22.1428 3.78702 22.1973 3.89655 22.3068L4.29271 22.707C4.47367 22.888 4.72361 22.9998 4.99982 22.9998C5.55208 22.9998 5.99973 22.5522 5.99973 21.9999C5.99973 21.4477 5.55208 21 4.99982 21Z" fill="#FFF"/>
<path d="M12.8944 1.55279C12.724 1.21204 12.3748 0.997696 11.9939 1.00002C11.6129 1.00234 11.2664 1.22092 11.1002 1.56373L3.10017 18.0637C2.85922 18.5607 3.06676 19.1589 3.56371 19.3998C4.06066 19.6408 4.65885 19.4332 4.8998 18.9363L12.0138 4.26367L20.382 21H4.99982C4.44754 21 3.99998 21.4477 3.99998 22C3.99998 22.5523 4.44754 22.9998 4.99982 22.9998L22 23C22.3466 23 22.6684 22.8205 22.8506 22.5257C23.0328 22.2309 23.0494 21.8628 22.8944 21.5528L12.8944 1.55279Z" fill="#FFF"/>
<path d="M13 10C13 9.44771 12.5523 9 12 9C11.4477 9 11 9.44771 11 10V15C11 15.5523 11.4477 16 12 16C12.5523 16 13 15.5523 13 15V10Z" fill="#FFF"/>
<path d="M13 18C13 18.5523 12.5523 19 12 19C11.4477 19 11 18.5523 11 18C11 17.4477 11.4477 17 12 17C12.5523 17 13 17.4477 13 18Z" fill="#FFF"/>
</svg>
