<svg width="44" height="44" viewBox="0 0 24 24" fill="none" xmlns="http://www.w3.org/2000/svg">
<path d="M4.2142 5.25142C5.80862 3.58286 8.37404 3.58286 9.96846 5.25142L11.277 6.62082C11.4657 6.81826 11.7269 6.92996 12 6.92996C12.2731 6.92996 12.5343 6.81826 12.723 6.62082L14.0315 5.25142C15.626 3.58286 18.1914 3.58286 19.7858 5.25142C21.4047 6.94563 21.4047 9.7105 19.7858 11.4047L11.277 20.3091C10.8955 20.7084 10.9098 21.3414 11.3091 21.723C11.7084 22.1045 12.3414 22.0902 12.723 21.6909L21.2318 12.7864C23.5894 10.3192 23.5894 6.33696 21.2318 3.86969C18.8496 1.37677 14.9677 1.37677 12.5856 3.86969L12 4.48249L11.4144 3.86969C9.03227 1.37677 5.15039 1.37677 2.76823 3.86969C0.410588 6.33696 0.410592 10.3192 2.76823 12.7864L4.98102 15.1021C5.01307 15.1357 5.04689 15.1665 5.08219 15.1946C5.25746 15.3352 5.46968 15.4084 5.68358 15.4134L6.2466 15.4237C6.40147 15.4274 6.54002 15.4936 6.63889 15.5977C6.73826 15.7013 6.79796 15.8428 6.79434 15.9977L6.77831 16.5606C6.77233 16.8164 6.86398 17.0745 7.05468 17.2743C7.43595 17.6738 8.06886 17.6886 8.46838 17.3073C8.8679 16.9261 8.8827 16.2931 8.50143 15.8936C8.31073 15.6938 8.05715 15.5903 7.80129 15.5843L7.23826 15.574C7.0834 15.5704 6.94485 15.5042 6.84598 15.4001C6.7466 15.2964 6.68691 15.155 6.69053 15.0001L6.70656 14.4372C6.71254 14.1813 6.62101 13.9232 6.43032 13.7234C6.42403 13.7168 6.41767 13.7103 6.41125 13.7039L4.2142 11.4047C2.59527 9.7105 2.59527 6.94563 4.2142 5.25142Z" fill="#FF5640"/>
</svg>
