<svg width="44" height="44" viewBox="0 0 24 24" fill="none" xmlns="http://www.w3.org/2000/svg">
<path d="M3 12C3 7.03309 7.04317 3 12.0388 3C14.333 3 16.425 3.84971 18.0188 5.25101C18.4336 5.61568 19.0654 5.57506 19.4301 5.16029C19.7948 4.74552 19.7541 4.11366 19.3394 3.74899C17.3938 2.03847 14.8366 1 12.0388 1C5.94591 1 1 5.92122 1 12C1 18.0788 5.94591 23 12.0388 23C17.6657 23 22.3125 18.8042 22.9923 13.3742C22.9942 13.3589 22.9957 13.3436 22.9969 13.3284C23.0049 13.2649 23.0068 13.1998 23.0022 13.1336C22.9829 12.8581 22.8537 12.6166 22.6606 12.4487L22.2337 12.0814C22.1168 11.9798 22.0524 11.8404 22.0427 11.6971C22.0324 11.5539 22.0767 11.4069 22.1784 11.29L22.55 10.8669C22.7179 10.6737 22.8122 10.4166 22.7929 10.141C22.7544 9.59012 22.2766 9.17478 21.7257 9.21331C21.1748 9.25183 20.7594 9.72962 20.7979 10.2805C20.8172 10.5561 20.9462 10.7976 21.1394 10.9655L21.5662 11.3328C21.6831 11.4344 21.7475 11.5738 21.7572 11.7171C21.7675 11.8603 21.7232 12.0073 21.6216 12.1242L21.25 12.5473C21.112 12.7061 21.0238 12.908 21.0075 13.1279C20.4513 17.5627 16.6499 21 12.0388 21C7.04317 21 3 16.9669 3 12Z" fill="#FF5640"/>
    <path d="M 13 7 C 13 7 13 6 12 6 C 11 6 11 7 11 7 V 15 C 11 15.5523 11.4477 16 12 16 C 12.5523 16 13 15.5523 13 15 V 7 Z" fill="#FF5640"/>
    <path d="M13 18C13 18.5523 12.5523 19 12 19C11.4477 19 11 18.5523 11 18C11 17.4477 11.4477 17 12 17C12.5523 17 13 17.4477 13 18Z" fill="#FF5640"/>
</svg>
