<svg width="44" height="44" viewBox="0 0 24 24" fill="none" xmlns="http://www.w3.org/2000/svg">
<path d="M3 12C3 7.03309 7.04317 3 12.0388 3C14.333 3 16.425 3.84971 18.0188 5.25101C18.4336 5.61568 19.0654 5.57506 19.4301 5.16029C19.7948 4.74552 19.7541 4.11366 19.3394 3.74899C17.3938 2.03847 14.8366 1 12.0388 1C5.94591 1 1 5.92122 1 12C1 18.0788 5.94591 23 12.0388 23C17.6657 23 22.3125 18.8042 22.9923 13.3742C22.9967 13.3384 22.9993 13.3027 22.9999 13.2674C23.0188 13.1784 23.0257 13.0853 23.019 12.9901C22.9997 12.7145 22.8706 12.473 22.6774 12.3051L22.2505 11.9378C22.1336 11.8362 22.0693 11.6968 22.0596 11.5535C22.0492 11.4103 22.0936 11.2633 22.1952 11.1464L22.5668 10.7233C22.7347 10.5302 22.829 10.273 22.8097 9.99748C22.7712 9.44657 22.2934 9.03123 21.7425 9.06975C21.1916 9.10827 20.7763 9.58607 20.8148 10.137C20.8341 10.4125 20.963 10.654 21.1562 10.8219L21.5831 11.1892C21.7 11.2908 21.7644 11.4303 21.774 11.5735C21.7844 11.7167 21.74 11.8637 21.6384 11.9807L21.2668 12.4038C21.1167 12.5764 21.0256 12.8002 21.0217 13.0425C21.0159 13.0698 21.0113 13.0976 21.0077 13.1258C20.4525 17.5616 16.6506 21 12.0388 21C7.04317 21 3 16.9669 3 12Z" fill="#FF5640"/>
<path d="M13 7C13 7.55228 12.5523 8 12 8C11.4477 8 11 7.55228 11 7C11 6.44772 11.4477 6 12 6C12.5523 6 13 6.44772 13 7Z" fill="#FF5640"/>
<path d="M13 10C13 9.44772 12.5523 9 12 9C11.4477 9 11 9.44772 11 10V18C11 18.5523 11.4477 19 12 19C12.5523 19 13 18.5523 13 18V10Z" fill="#FF5640"/>
</svg>
