<svg width="24" height="24" viewBox="0 0 24 24" fill="none" xmlns="http://www.w3.org/2000/svg">
<path d="M6.99982 21C6.72361 21 6.47367 21.112 6.29271 21.293L5.89655 21.6932C5.78702 21.8027 5.64344 21.8572 5.49987 21.8569C5.35629 21.8572 5.21272 21.8027 5.10318 21.6932L4.70703 21.293C4.52606 21.112 4.27613 21 3.99991 21C3.44766 21 3 21.4477 3 21.9999C3 22.5522 3.44766 22.9998 3.99991 22.9998C4.27613 22.9998 4.52606 22.888 4.70703 22.707L5.10318 22.3068C5.21272 22.1973 5.35629 22.1428 5.49987 22.1431C5.64344 22.1428 5.78702 22.1973 5.89655 22.3068L6.29271 22.707C6.47367 22.888 6.72361 22.9998 6.99982 22.9998C7.55208 22.9998 7.99973 22.5522 7.99973 21.9999C7.99973 21.4477 7.55208 21 6.99982 21Z" fill="#FF5640"/>
<path d="M4 1C3.44772 1 3 1.44772 3 2V17C3 17.5523 3.44772 18 4 18C4.55228 18 5 17.5523 5 17V3H19V21H6.99982C6.44754 21 6 21.4477 6 22C6 22.5523 6.44754 22.9998 6.99982 22.9998L20 23C20.5523 23 21 22.5523 21 22V2C21 1.44772 20.5523 1 20 1H4Z" fill="#FF5640"/>
<path d="M8 8C8.55228 8 9 7.55228 9 7C9 6.44772 8.55228 6 8 6C7.44772 6 7 6.44772 7 7C7 7.55228 7.44772 8 8 8Z" fill="#FF5640"/>
<path d="M11 7C11 6.44772 11.4477 6 12 6H16C16.5523 6 17 6.44772 17 7C17 7.55228 16.5523 8 16 8H12C11.4477 8 11 7.55228 11 7Z" fill="#FF5640"/>
<path d="M9 12C9 12.5523 8.55228 13 8 13C7.44772 13 7 12.5523 7 12C7 11.4477 7.44772 11 8 11C8.55228 11 9 11.4477 9 12Z" fill="#FF5640"/>
<path d="M11 12C11 11.4477 11.4477 11 12 11H16C16.5523 11 17 11.4477 17 12C17 12.5523 16.5523 13 16 13H12C11.4477 13 11 12.5523 11 12Z" fill="#FF5640"/>
<path d="M9 17C9 17.5523 8.55228 18 8 18C7.44772 18 7 17.5523 7 17C7 16.4477 7.44772 16 8 16C8.55228 16 9 16.4477 9 17Z" fill="#FF5640"/>
<path d="M11 17C11 16.4477 11.4477 16 12 16H16C16.5523 16 17 16.4477 17 17C17 17.5523 16.5523 18 16 18H12C11.4477 18 11 17.5523 11 17Z" fill="#FF5640"/>
</svg>
