<svg width="44" height="44" viewBox="0 0 24 24" fill="none" xmlns="http://www.w3.org/2000/svg">
<path d="M12 3C8.68629 3 6 5.68629 6 9C6 12.3137 8.68629 15 12 15C15.2896 15 17.9609 12.3527 17.9996 9.07224C17.9709 8.82677 18.036 8.59596 18.1625 8.40245L18.5338 7.9017C18.7194 7.65129 18.6676 7.3049 18.4169 7.11975L17.9154 6.7495C17.7301 6.59508 17.5968 6.38229 17.5584 6.12494C17.477 5.58058 17.8567 5.06844 18.4021 4.98688C18.9475 4.90533 19.4604 5.284 19.5418 5.82835C19.5803 6.0857 19.5152 6.32815 19.3831 6.53003L19.0119 7.03078C18.8263 7.28118 18.8781 7.62757 19.1288 7.81273L19.6303 8.18298C19.8156 8.3374 19.9488 8.5502 19.9873 8.80754C19.9939 8.85163 19.9975 8.8955 19.9982 8.93894C19.9994 8.95914 20 8.9795 20 9C20 13.4183 16.4183 17 12 17C7.58172 17 4 13.4183 4 9C4 4.58172 7.58172 1 12 1C12.9333 1 13.8314 1.16024 14.6668 1.45554C15.1875 1.6396 15.4604 2.21093 15.2763 2.73164C15.0923 3.25235 14.5209 3.52526 14.0002 3.3412C13.3759 3.12052 12.7031 3 12 3Z" fill="#FF5640"/>
<path d="M7.5 19C7.5 18.4477 7.94772 18 8.5 18H15.5C16.0523 18 16.5 18.4477 16.5 19C16.5 19.5523 16.0523 20 15.5 20H8.5C7.94772 20 7.5 19.5523 7.5 19Z" fill="#FF5640"/>
<path d="M9 22C9 21.4477 9.44772 21 10 21H14C14.5523 21 15 21.4477 15 22C15 22.5523 14.5523 23 14 23H10C9.44772 23 9 22.5523 9 22Z" fill="#FF5640"/>
</svg>
